<?xml version="1.0" encoding="utf-8"?>
<!-- Generator: Adobe Illustrator 18.0.0, SVG Export Plug-In . SVG Version: 6.00 Build 0)  -->
<!DOCTYPE svg PUBLIC "-//W3C//DTD SVG 1.1//EN" "http://www.w3.org/Graphics/SVG/1.1/DTD/svg11.dtd" [
	<!ENTITY ns_extend "http://ns.adobe.com/Extensibility/1.0/">
	<!ENTITY ns_ai "http://ns.adobe.com/AdobeIllustrator/10.0/">
	<!ENTITY ns_graphs "http://ns.adobe.com/Graphs/1.0/">
	<!ENTITY ns_vars "http://ns.adobe.com/Variables/1.0/">
	<!ENTITY ns_imrep "http://ns.adobe.com/ImageReplacement/1.0/">
	<!ENTITY ns_sfw "http://ns.adobe.com/SaveForWeb/1.0/">
	<!ENTITY ns_custom "http://ns.adobe.com/GenericCustomNamespace/1.0/">
	<!ENTITY ns_adobe_xpath "http://ns.adobe.com/XPath/1.0/">
]>
<svg version="1.1" id="icons" xmlns:x="&ns_extend;" xmlns:i="&ns_ai;" xmlns:graph="&ns_graphs;"
	 xmlns="http://www.w3.org/2000/svg" xmlns:xlink="http://www.w3.org/1999/xlink" x="0px" y="0px" viewBox="0 0 24 24"
	 enable-background="new 0 0 24 24" xml:space="preserve">
<metadata>
	<sfw  xmlns="&ns_sfw;">
		<slices></slices>
		<sliceSourceBounds  height="464" width="332.001" x="20.999" y="-419" bottomLeftOrigin="true"></sliceSourceBounds>
		<optimizationSettings>
			<targetSettings  fileFormat="PNG24Format" targetSettingsID="0">
				<PNG24Format  transparency="true" filtered="false" noMatteColor="false" matteColor="#FFFFFF" interlaced="false">
					</PNG24Format>
			</targetSettings>
		</optimizationSettings>
	</sfw>
</metadata>
<path fill="#5B5B5B" d="M22.5,3h-21C0.673,3,0,3.673,0,4.5v13C0,18.327,0.673,19,1.5,19h10.882l7.895,3.947
	C20.347,22.982,20.424,23,20.5,23c0.092,0,0.183-0.025,0.263-0.074C20.91,22.834,21,22.673,21,22.5V19h1.5
	c0.827,0,1.5-0.673,1.5-1.5v-13C24,3.673,23.327,3,22.5,3z M23,17.5c0,0.275-0.225,0.5-0.5,0.5h-2c-0.276,0-0.5,0.224-0.5,0.5v3.191
	l-7.276-3.639C12.654,18.019,12.577,18,12.5,18h-11C1.225,18,1,17.775,1,17.5v-13C1,4.224,1.225,4,1.5,4h21
	C22.775,4,23,4.224,23,4.5V17.5z"/>
<circle fill="#5B5B5B" cx="6" cy="11" r="1"/>
<circle fill="#5B5B5B" cx="18" cy="11" r="1"/>
<circle fill="#5B5B5B" cx="12" cy="11" r="1"/>
</svg>
