<?xml version="1.0" encoding="utf-8"?>
<!-- Generator: Adobe Illustrator 18.0.0, SVG Export Plug-In . SVG Version: 6.00 Build 0)  -->
<!DOCTYPE svg PUBLIC "-//W3C//DTD SVG 1.1//EN" "http://www.w3.org/Graphics/SVG/1.1/DTD/svg11.dtd" [
	<!ENTITY ns_extend "http://ns.adobe.com/Extensibility/1.0/">
	<!ENTITY ns_ai "http://ns.adobe.com/AdobeIllustrator/10.0/">
	<!ENTITY ns_graphs "http://ns.adobe.com/Graphs/1.0/">
	<!ENTITY ns_vars "http://ns.adobe.com/Variables/1.0/">
	<!ENTITY ns_imrep "http://ns.adobe.com/ImageReplacement/1.0/">
	<!ENTITY ns_sfw "http://ns.adobe.com/SaveForWeb/1.0/">
	<!ENTITY ns_custom "http://ns.adobe.com/GenericCustomNamespace/1.0/">
	<!ENTITY ns_adobe_xpath "http://ns.adobe.com/XPath/1.0/">
]>
<svg version="1.1" id="icons" xmlns:x="&ns_extend;" xmlns:i="&ns_ai;" xmlns:graph="&ns_graphs;"
	 xmlns="http://www.w3.org/2000/svg" xmlns:xlink="http://www.w3.org/1999/xlink" x="0px" y="0px" viewBox="0 0 24 24"
	 enable-background="new 0 0 24 24" xml:space="preserve">
<metadata>
	<sfw  xmlns="&ns_sfw;">
		<slices></slices>
		<sliceSourceBounds  height="464" width="332.001" x="20.999" y="-419" bottomLeftOrigin="true"></sliceSourceBounds>
		<optimizationSettings>
			<targetSettings  fileFormat="PNG24Format" targetSettingsID="0">
				<PNG24Format  transparency="true" filtered="false" noMatteColor="false" matteColor="#FFFFFF" interlaced="false">
					</PNG24Format>
			</targetSettings>
		</optimizationSettings>
	</sfw>
</metadata>
<path fill="#5B5B5B" d="M0.5,12H5v11.5C5,23.776,5.224,24,5.5,24h17c0.276,0,0.5-0.224,0.5-0.5v-23C23,0.224,22.776,0,22.5,0h-17
	C5.224,0,5,0.224,5,0.5V11H0.5C0.224,11,0,11.224,0,11.5S0.224,12,0.5,12z M6,1h16v22H6V12h6.293l-4.146,4.146
	c-0.195,0.195-0.195,0.512,0,0.707C8.244,16.951,8.372,17,8.5,17s0.256-0.049,0.354-0.146l4.999-4.999
	c0.046-0.046,0.083-0.102,0.109-0.163c0.051-0.122,0.051-0.26,0-0.382c-0.025-0.062-0.062-0.117-0.109-0.163L8.854,6.146
	c-0.195-0.195-0.512-0.195-0.707,0s-0.195,0.512,0,0.707L12.293,11H6V1z"/>
</svg>
