<?xml version="1.0" encoding="utf-8"?>
<!-- Generator: Adobe Illustrator 23.0.1, SVG Export Plug-In . SVG Version: 6.00 Build 0)  -->
<svg version="1.1" id="Layer_1" xmlns="http://www.w3.org/2000/svg" xmlns:xlink="http://www.w3.org/1999/xlink" x="0px" y="0px"
	 viewBox="0 0 100 100" style="enable-background:new 0 0 100 100;" xml:space="preserve">
<path d="M79.3,25.4C73.9,14.6,63.6,7.9,51.7,7.3c-1.1-0.1-2.3-0.1-3.4,0c-11.9,0.5-22.2,7.3-27.6,18.1C15.1,36.6,16,49.3,23,59.5
	l20.4,29.7c1.5,2.2,4,3.5,6.6,3.5s5.1-1.3,6.6-3.5L77,59.5C84,49.3,84.9,36.6,79.3,25.4z M73.7,57.2L53.3,87c-0.8,1.1-2,1.7-3.3,1.7
	c-1.3,0-2.5-0.6-3.3-1.7L26.3,57.2c-6.2-9-6.9-20.2-2-30C29,17.7,38,11.8,48.5,11.3c0.5,0,1,0,1.5,0s1,0,1.5,0
	C62,11.8,71,17.7,75.7,27.2C80.6,37,79.9,48.3,73.7,57.2z M50,25.3c-8.3,0-15,6.7-15,15s6.7,15,15,15c8.3,0,15-6.7,15-15
	S58.3,25.3,50,25.3z M50,51.3c-6.1,0-11-4.9-11-11s4.9-11,11-11s11,4.9,11,11S56.1,51.3,50,51.3z"/>
</svg>
